<svg width="702" height="396" viewBox="0 0 702 396" fill="none" xmlns="http://www.w3.org/2000/svg">
<g clip-path="url(#clip0)">
<path d="M158.124 135.47L152.663 393.521C152.663 395.38 157.627 394.761 158.868 394.761H166.315L165.074 135.842L209.384 137.082L190.146 28.3831C189.153 22.8056 184.312 18.5916 178.479 18.5916H147.822C140.499 18.5916 134.169 23.7972 132.928 30.9859L114.187 134.479L158.124 135.47Z" fill="#E1E6FC"/>
<path d="M81.6683 333.904C81.6683 333.904 81.42 344.068 83.1577 345.183C83.9023 345.803 84.7712 346.175 85.64 346.423L94.204 392.406C94.204 392.406 119.151 396.992 131.687 391.786L140.251 346.423L143.106 345.307L144.223 333.904C144.223 333.904 113.566 323.741 81.6683 333.904Z" fill="#E1E6FC"/>
<path d="M84.5229 346.175C84.5229 346.175 118.034 348.777 122.006 347.662C125.978 346.546 124.861 337.499 124.861 337.499L141.368 335.763C141.368 335.763 141.368 345.431 140.251 346.546C139.01 348.034 138.017 349.769 137.396 351.628C137.396 352.248 130.57 392.53 130.57 392.53C130.57 392.53 119.772 394.265 118.034 394.265C116.297 394.265 122.627 360.8 122.627 358.569C122.627 356.338 122.627 351.752 120.889 351.752C119.151 351.752 86.3847 352.744 86.1365 349.025C85.8882 347.91 85.3918 346.918 84.5229 346.175Z" fill="#BAC4F6"/>
<path d="M97.8033 336.011C97.8033 336.011 88.4946 329.442 83.53 328.823C78.5653 328.203 72.856 327.583 67.8913 326.839C62.9267 326.096 56.5968 323.865 56.7209 320.89C56.845 317.915 57.4656 316.552 60.3203 314.941C62.8026 313.33 65.5331 312.338 68.5119 311.966C70.746 311.718 93.0869 317.544 102.396 331.425L106.119 336.011H97.8033Z" fill="#BAC4F6"/>
<path d="M65.4091 319.899C65.4091 319.899 73.9731 319.775 78.6895 321.262C82.413 322.625 85.8882 324.237 89.3634 326.22L103.389 336.011" fill="#BAC4F6"/>
<path d="M65.4091 319.899C65.4091 319.899 73.9731 319.775 78.6895 321.262C82.413 322.625 85.8882 324.237 89.3634 326.22L103.389 336.011" stroke="white" stroke-width="0.75" stroke-miterlimit="10" stroke-linecap="round"/>
<path d="M107.608 335.639C107.608 335.639 96.6863 320.89 92.4663 316.8C88.2464 312.71 83.2817 307.876 79.1859 303.538C75.0901 299.2 70.0013 293.003 72.1113 290.4C74.2213 287.797 75.8348 286.062 79.8065 286.682C82.9094 287.054 85.8882 288.045 88.3705 289.904C90.6046 291.268 110.339 310.107 113.194 331.673L116.048 336.011L107.608 335.639Z" fill="#BAC4F6"/>
<path d="M82.0405 295.358C82.0405 295.358 90.4804 300.439 93.8315 305.273C96.9344 309.859 101.899 317.916 101.899 317.916L107.608 333.408" stroke="white" stroke-width="0.75" stroke-miterlimit="10" stroke-linecap="round"/>
<path d="M113.07 336.383C113.07 336.383 100.41 308.868 98.0515 303.414C95.6933 297.961 86.0123 289.78 83.9023 284.203C81.7923 278.625 80.4271 274.659 82.6611 271.561C84.8952 268.462 90.7287 265.983 94.4522 267.842C97.9274 269.577 102.52 274.783 104.506 277.386C106.119 279.493 116.421 316.8 115.552 325.476L117.538 336.507L113.07 336.383Z" fill="#E9EDFC"/>
<path d="M90.7286 278.006C90.7286 278.006 98.0515 287.425 100.286 292.879C102.768 299.076 105.25 310.851 104.878 308.992L112.449 334.524" stroke="white" stroke-width="0.75" stroke-miterlimit="10" stroke-linecap="round"/>
<path d="M106.119 336.259C106.119 336.259 94.9486 323.493 89.4875 321.014C84.0264 318.535 77.8206 315.808 72.4836 313.082C67.1467 310.355 60.8167 305.893 61.8097 303.166C62.8026 300.439 64.0438 299.324 67.8913 298.828C71.2425 298.208 74.7177 298.332 78.0689 299.076C80.5512 299.696 103.885 313.825 109.843 330.558L112.573 336.383L106.119 336.259Z" fill="#E9EDFC"/>
<path d="M72.1113 305.521C72.1113 305.521 81.7924 308.744 86.6329 311.966C90.2323 314.693 93.7075 317.544 97.0586 320.766L107.733 336.383" stroke="white" stroke-width="0.75" stroke-miterlimit="10" stroke-linecap="round"/>
<path d="M135.286 336.507C135.286 336.507 145.464 330.31 150.801 329.69C156.138 329.07 162.344 328.575 167.805 327.831C173.266 327.087 179.968 324.98 179.844 322.254C179.72 319.527 179.099 318.163 175.872 316.552C173.142 315.065 170.163 314.073 167.06 313.701C164.702 313.454 140.499 319.031 130.322 332.293L126.226 336.631L135.286 336.507Z" fill="#BAC4F6"/>
<path d="M170.287 321.014C170.287 321.014 160.978 320.89 155.89 322.377C151.918 323.617 148.07 325.228 144.347 327.087L130.818 336.135" fill="#BAC4F6"/>
<path d="M170.287 321.014C170.287 321.014 160.978 320.89 155.89 322.377C151.918 323.617 148.07 325.228 144.347 327.087L130.818 336.135" stroke="white" stroke-width="0.75" stroke-miterlimit="10" stroke-linecap="round"/>
<path d="M124.612 336.135C124.612 336.135 136.403 322.006 140.996 318.039C145.588 314.073 150.925 309.487 155.393 305.397C159.861 301.307 165.447 295.358 163.088 292.879C160.73 290.4 159.117 288.789 154.773 289.285C151.421 289.532 148.319 290.648 145.464 292.383C143.106 293.747 121.758 311.718 118.655 332.293L115.552 336.507L124.612 336.135Z" fill="#BAC4F6"/>
<path d="M152.29 297.713C152.29 297.713 143.106 302.547 139.506 307.132C136.155 311.47 130.694 319.279 130.694 319.279L124.612 334.028" stroke="white" stroke-width="0.75" stroke-miterlimit="10" stroke-linecap="round"/>
<path d="M118.779 336.879C118.779 336.879 132.556 310.603 135.038 305.397C137.52 300.192 148.07 292.383 150.428 287.054C152.787 281.724 154.276 277.882 151.794 275.031C149.311 272.18 142.981 269.701 139.01 271.437C135.162 273.048 130.322 278.006 128.088 280.608C126.35 282.592 115.18 318.287 116.048 326.592L113.938 337.127L118.779 336.879Z" fill="#E9EDFC"/>
<path d="M117.414 336.507C117.414 336.507 118.531 310.851 121.137 302.546C122.875 296.969 124.612 287.673 126.971 282.468C129.329 277.262 125.729 270.321 123.371 267.347C121.013 264.372 114.683 264.992 110.587 266.727C106.74 268.338 104.63 273.668 104.133 276.518C103.761 279.121 112.821 309.983 111.828 321.386L112.573 336.755L117.414 336.507Z" fill="#BAC4F6"/>
<path d="M142.982 281.104C142.982 281.104 135.162 290.028 132.68 295.358C129.949 301.307 127.343 312.586 127.715 310.727L118.779 335.763" stroke="white" stroke-width="0.75" stroke-miterlimit="10" stroke-linecap="round"/>
<path d="M126.35 336.631C126.35 336.631 138.513 324.485 144.347 322.13C150.18 319.775 157.007 317.172 162.716 314.569C168.425 311.966 175.376 307.752 174.259 305.149C173.142 302.546 171.901 301.555 167.681 301.059C164.081 300.563 160.358 300.563 156.758 301.307C154.028 301.927 128.832 315.313 122.378 331.301L119.4 336.755L126.35 336.631Z" fill="#E9EDFC"/>
<path d="M162.964 307.38C162.964 307.38 152.538 310.355 147.326 313.454C143.354 315.932 139.63 318.783 136.031 321.758L124.24 334.896" stroke="white" stroke-width="0.75" stroke-miterlimit="10" stroke-linecap="round"/>
<path d="M114.931 272.056C114.931 272.056 117.041 293.994 115.8 299.944C115.304 302.423 115.552 317.916 115.552 317.916L115.055 335.02" stroke="white" stroke-width="0.75" stroke-miterlimit="10" stroke-linecap="round"/>
<path d="M115.428 128.777L207.522 130.513L209.384 137.082L114.311 134.603L115.428 128.777Z" fill="#BAC4F6"/>
<path d="M568.327 144.766L567.582 325.476L682.514 325.724C682.514 325.724 683.383 230.535 678.79 139.437L568.575 137.825L568.327 144.766Z" fill="#BAC4F6"/>
<path d="M460.098 168.192L457.119 325.972H555.295L554.674 168.192H460.098Z" fill="#BAC4F6"/>
<path d="M317.489 260.777L458.733 261.521L457.119 325.972L317.985 325.848L317.489 260.777Z" fill="#BAC4F6"/>
<path d="M305.822 169.803L306.194 326.344C306.194 326.344 307.063 336.135 316.496 336.631C325.929 337.127 697.284 337.251 697.284 337.251C697.284 337.251 700.635 326.839 699.27 326.468C697.904 326.096 317.985 326.096 317.985 326.096C317.985 326.096 318.109 320.518 318.109 317.048C318.109 313.082 317.861 165.093 317.861 165.093C314.138 166.952 310.042 168.563 305.822 169.803Z" fill="white"/>
<path d="M314.013 185.296L689.713 187.651L691.698 195.707L314.013 197.566V185.296Z" fill="white"/>
<path d="M420.008 63.4592V326.22L429.938 326.963V56.6423L420.008 63.4592Z" fill="white"/>
<path d="M599.48 10.6592L599.232 326.22L608.417 325.476L609.906 16.8564L599.48 10.6592Z" fill="white"/>
<path d="M429.938 56.6423L644.41 58.0056L638.204 46.8507L442.225 46.7268L429.938 56.6423Z" fill="white"/>
<path d="M466.055 108.451C478.12 108.451 487.9 98.6842 487.9 86.6366C487.9 74.589 478.12 64.8225 466.055 64.8225C453.991 64.8225 444.211 74.589 444.211 86.6366C444.211 98.6842 453.991 108.451 466.055 108.451Z" fill="white"/>
<path d="M487.279 107.831C495.162 107.831 501.553 101.449 501.553 93.5775C501.553 85.7055 495.162 79.3239 487.279 79.3239C479.396 79.3239 473.006 85.7055 473.006 93.5775C473.006 101.449 479.396 107.831 487.279 107.831Z" fill="white"/>
<path d="M631.502 128.901C643.772 128.901 653.719 118.968 653.719 106.715C653.719 94.4625 643.772 84.5296 631.502 84.5296C619.232 84.5296 609.285 94.4625 609.285 106.715C609.285 118.968 619.232 128.901 631.502 128.901Z" fill="white"/>
<path d="M608.541 124.068C616.561 124.068 623.062 117.575 623.062 109.566C623.062 101.557 616.561 95.0648 608.541 95.0648C600.521 95.0648 594.019 101.557 594.019 109.566C594.019 117.575 600.521 124.068 608.541 124.068Z" fill="white"/>
<path d="M548.22 327.583L555.543 325.352L559.018 384.721L556.164 385.961L548.22 327.583Z" fill="white"/>
<path d="M603.576 310.479L614.746 307.008L628.399 361.296L625.172 362.163L603.576 310.479Z" fill="white"/>
<path d="M472.758 323.121L458.733 367.989L454.885 366.254L461.463 321.386L472.758 323.121Z" fill="white"/>
<path d="M538.415 329.566H542.511L548.22 327.583L556.164 385.961L552.689 385.093L538.415 329.566Z" fill="white"/>
<path d="M524.142 158.772L589.675 158.524L588.434 303.538L533.45 308.62L525.507 311.718L461.587 307.876L461.711 303.786L531.837 294.986L524.142 158.772Z" fill="url(#paint0_linear)"/>
<path d="M501.677 159.02L524.142 158.772L534.816 300.439L457.616 304.53L453.272 273.42L471.02 269.949L510.986 267.718L501.677 159.02Z" fill="url(#paint1_linear)"/>
<path d="M444.335 307.008L444.708 316.676C444.708 316.676 444.583 320.642 449.548 320.766C454.637 320.89 538.291 329.442 538.291 329.442C538.291 329.442 544.993 331.177 555.419 325.352L615.739 306.265C615.739 306.265 617.849 306.141 617.601 302.547C617.353 298.952 627.903 162.242 627.903 161.87C627.903 161.499 626.538 160.135 623.807 159.887C621.325 159.763 595.508 158.152 595.508 158.152L595.633 262.141C595.633 262.141 596.377 271.685 591.909 272.056C581.98 272.924 541.27 272.304 536.057 276.518C532.582 279.369 540.525 303.662 541.27 308.62C541.518 310.107 530.596 309.487 527.245 310.355C524.762 311.223 444.335 307.008 444.335 307.008Z" fill="url(#paint2_linear)"/>
<path d="M529.975 273.048C529.975 273.048 523.894 273.048 523.645 277.262C523.397 280.856 523.273 302.67 523.273 309.611C523.273 310.603 523.149 311.594 523.025 312.462C522.777 313.701 524.142 316.18 527.121 316.304C532.954 316.428 539.532 316.304 539.532 316.304C539.532 316.304 542.387 315.437 541.766 310.727C541.27 306.017 536.057 281.476 536.057 281.476C536.057 281.476 534.443 275.651 540.029 275.651C545.614 275.651 589.799 272.428 589.799 272.428C589.799 272.428 595.881 272.676 596.129 267.099C596.377 261.521 597.494 162.118 597.494 162.118C597.494 162.118 598.239 157.904 594.64 157.656C590.916 157.408 583.593 158.152 583.593 158.152C583.593 158.152 581.235 158.4 581.235 161.87C581.235 165.341 585.455 264.372 584.959 266.355C584.214 269.454 576.643 270.197 572.671 270.445C568.451 270.817 529.975 273.048 529.975 273.048Z" fill="#4C4CBF"/>
<path d="M487.899 164.101C487.899 164.101 487.154 157.161 491.995 157.532C495.222 157.78 498.573 158.4 501.8 159.02C501.8 159.02 503.786 158.772 504.158 161.003C504.531 163.234 520.045 267.842 518.928 268.214C517.811 268.586 464.069 271.685 462.952 271.685C461.711 271.685 457.367 271.561 457.863 275.031C458.36 278.501 461.835 302.67 461.835 303.662C461.835 304.654 462.331 308.124 461.338 308.496C460.47 308.744 444.459 308 444.459 308L445.7 275.155C445.7 275.155 445.576 269.577 448.803 269.206C452.03 268.834 507.882 266.603 508.502 265.983C509.123 265.363 507.385 259.662 506.765 257.183C506.268 255.696 487.899 164.101 487.899 164.101Z" fill="#4C4CBF"/>
<path d="M275.786 368.237H273.924L264.119 368.361C264.119 368.361 262.009 378.4 260.768 382.614C260.768 382.862 260.395 383.606 260.395 384.101C260.271 384.845 260.147 385.589 260.147 386.332C260.395 390.175 261.761 393.397 265.236 395.132C268.959 396.992 271.814 398.727 275.91 395.132C279.882 391.538 280.378 389.183 278.889 382.862C277.275 376.417 276.655 368.361 275.786 368.237Z" fill="#4B44BE"/>
<path d="M316.868 380.755C310.042 378.648 305.574 369.352 305.574 369.352L294.031 368.608C294.031 368.608 293.41 377.904 293.038 382.738C292.666 389.059 293.659 391.786 297.878 391.538C303.34 391.166 325.556 393.149 329.156 390.794C333.748 387.944 323.198 382.738 316.868 380.755Z" fill="#4B44BE"/>
<path d="M247.487 202.276V216.034L264.243 368.361H276.034C276.034 368.361 280.13 263.876 280.13 260.282C280.13 256.687 281.123 245.285 281.123 245.285C281.123 245.285 296.017 288.169 296.265 291.763C296.513 295.358 293.907 369.228 293.907 369.228L305.698 369.724C305.698 369.724 315.999 319.775 315.999 315.065C315.999 310.355 319.475 285.814 318.978 280.98C318.482 276.27 309.669 202.648 309.669 202.648L291.548 202.152L247.487 202.276Z" fill="url(#paint3_linear)"/>
<path d="M324.191 186.287L324.067 186.039C324.067 186.163 324.067 186.287 324.191 186.287ZM289.439 172.901L282.86 175.628L282.488 184.8L289.811 187.651L297.754 187.279C297.754 186.907 300.857 187.031 302.347 187.899L327.17 179.347L328.039 173.397C328.039 173.397 329.9 180.834 321.585 165.837L289.439 172.901ZM318.978 142.659L318.482 139.685L317.241 139.437L318.978 142.659ZM273.179 63.2113C270.076 64.4507 268.711 68.9127 268.711 68.9127C268.711 68.9127 267.222 68.0451 267.222 70.524C267.222 73.0028 268.463 78.7042 269.332 80.1916C270.945 82.6704 272.311 85.1493 273.552 87.7521C274.793 90.3549 274.296 95.6845 273.055 96.5521C271.814 97.2958 249.225 117.499 249.225 117.499L230.608 174.389V176.62L233.462 177.611L236.441 180.09C236.689 180.09 240.413 182.197 240.909 182.569C243.888 184.056 246.991 185.172 250.218 185.916C252.328 186.287 261.637 186.163 261.637 186.163L271.069 185.916L269.456 173.893L255.555 173.769L236.565 172.777L255.803 128.406L316.744 139.313C305.946 119.73 293.783 97.7916 292.666 95.5606C291.797 93.7014 292.666 89.1155 293.286 86.7606C293.783 84.6535 294.776 81.9268 295.768 81.1831C296.761 80.4395 298.499 76.969 298.499 75.3578C298.499 73.7465 298.871 67.9211 297.63 69.1606C297.258 69.5324 295.768 67.3014 295.272 65.0704C294.403 61.8479 292.169 59.493 289.563 57.3859C289.563 57.3859 276.158 61.8479 273.179 63.0873" fill="url(#paint4_linear)"/>
<path d="M249.97 105.228C246.991 107.211 244.26 109.938 243.267 113.408C242.274 116.879 235.2 143.899 234.207 147.245C231.849 155.549 230.483 158.028 227.753 167.82C224.402 179.842 232.097 181.701 240.04 183.561C248.232 185.42 248.356 186.163 250.218 186.163C250.59 186.163 260.271 188.146 260.519 182.693C260.768 179.223 260.147 173.769 258.782 173.893C255.803 174.265 246.122 171.786 245.626 171.414C245.005 171.042 247.736 163.482 249.349 158.772C250.466 155.301 254.934 140.924 255.927 138.197C256.424 136.71 253.445 152.203 251.583 167.324C251.583 167.944 250.838 173.769 250.963 173.769C253.197 173.769 259.278 173.893 261.14 174.141C269.704 175.132 271.318 179.223 270.821 182.445C269.828 188.146 249.101 185.544 249.225 186.287C249.225 186.287 245.626 202.4 247.611 203.392C249.349 204.259 272.559 213.927 277.523 215.786C278.02 216.034 278.64 215.786 278.889 215.166L281.992 206.118C281.992 205.994 282.116 205.994 282.24 205.994C282.24 205.994 282.364 205.994 282.364 206.118L285.343 216.034C285.343 216.282 285.591 216.53 285.839 216.654H287.204L313.021 211.076C313.021 211.076 312.896 200.913 312.896 187.899C312.896 186.535 312.648 181.701 311.779 182.693C310.786 183.561 289.314 186.411 286.956 185.42C281.992 183.313 283.233 178.107 284.97 176C286.956 173.521 312.4 172.282 312.524 170.546C312.896 162.614 312.276 141.668 311.903 144.146C311.283 148.113 296.389 169.555 296.389 173.397C296.389 177.239 296.141 186.535 296.141 186.535L320.592 184.676C320.592 184.676 328.783 181.825 329.528 177.115C330.273 172.406 329.404 170.299 329.032 163.234C328.783 158.772 322.453 131.876 320.716 124.316C320.467 123.2 320.343 121.961 320.219 120.845C319.971 117.746 318.73 110.31 311.903 107.087C303.464 103.121 296.885 99.8986 295.272 99.8986C293.658 99.8986 289.439 109.318 287.08 112.045C286.087 113.285 286.336 113.78 284.97 115.639C284.226 116.631 282.984 116.755 282.116 116.135C281.867 116.011 281.743 115.763 281.619 115.516C280.874 114.524 280.254 113.285 279.633 112.169C278.64 110.186 270.945 98.7831 270.945 98.7831C270.945 98.7831 252.824 103.245 249.97 105.228Z" fill="url(#paint5_linear)"/>
<path d="M289.687 57.6338C289.687 57.6338 273.179 63.831 272.062 64.6986C270.945 65.5662 268.711 68.9127 268.711 68.9127C268.711 68.9127 267.594 68.293 267.346 70.0282C267.346 70.0282 265.608 66.5578 265.484 64.5747C265.236 62.5916 265.484 57.6338 268.587 54.2873C271.69 50.9409 278.144 46.6028 281.991 47.2225C285.839 47.8423 287.577 48.2141 290.059 50.693C292.541 53.1718 294.651 53.9155 295.396 54.2873C296.141 54.6592 298.995 56.6423 299.492 60.4845C299.988 64.3268 298.623 72.0113 298.623 72.0113C298.623 72.0113 298.995 69.0366 297.754 69.9042C296.885 70.524 295.644 67.7972 295.396 66.1859C294.9 64.6986 290.68 58.0056 289.687 57.6338Z" fill="url(#paint6_linear)"/>
<g opacity="0.07">
<g opacity="0.07">
<g opacity="0.07">
<g opacity="0.07">
<g opacity="0.07">
<path opacity="0.07" d="M295.272 99.6507C295.148 99.2789 297.01 100.766 294.9 99.155C291.797 96.924 293.286 87.6282 293.286 87.6282C292.169 89.9831 290.183 91.9662 287.701 92.8338C283.729 94.3211 282.488 93.2056 288.694 96.6761C294.651 100.147 291.549 101.386 291.176 105.972" fill="black"/>
</g>
</g>
</g>
</g>
</g>
<g opacity="0.07">
<g opacity="0.07">
<g opacity="0.07">
<g opacity="0.07">
<g opacity="0.07">
<path opacity="0.07" d="M307.311 132.248L315.503 163.234C315.503 163.234 315.503 168.687 313.765 169.555C312.152 170.423 306.939 170.918 305.822 171.414C304.581 171.91 292.045 174.513 295.272 170.175C296.017 169.183 313.02 163.234 305.449 157.037C297.878 150.839 299.244 142.163 302.843 136.09C306.566 130.141 305.698 125.059 305.698 125.059L307.311 132.248Z" fill="black"/>
</g>
</g>
</g>
</g>
</g>
<g opacity="0.07">
<g opacity="0.07">
<g opacity="0.07">
<g opacity="0.07">
<g opacity="0.07">
<path opacity="0.07" d="M272.559 214.051C272.559 214.051 265.484 251.606 269.083 266.727C274.669 289.532 266.601 320.394 266.601 335.144C266.601 344.811 270.449 371.335 270.697 382.118C270.697 385.341 273.055 391.662 271.442 393.149C270.697 393.769 266.229 392.282 263.746 391.166C262.381 390.547 261.637 389.183 261.885 387.82L263.374 381.375L265.484 372.823L250.714 235.245C250.714 235.245 245.998 204.631 248.604 204.507C251.335 204.507 272.683 214.051 272.559 214.051Z" fill="black"/>
</g>
</g>
</g>
</g>
</g>
<path d="M265.856 163.482L293.658 166.952C294.279 167.076 294.651 167.696 294.527 168.316L293.783 193.476C293.783 194.22 293.286 195.335 292.541 195.087L264.864 189.758C264.367 189.634 263.995 189.138 263.995 188.518L263.871 185.792L266.974 185.048C267.718 184.8 268.463 184.428 269.083 183.932C269.208 183.808 269.332 183.685 269.456 183.561L270.076 182.569C270.325 182.321 270.325 181.949 270.325 181.577C270.201 180.958 270.076 180.214 269.952 179.842C269.952 179.718 269.828 179.47 269.828 179.47L269.083 177.983C268.711 177.239 268.215 176.744 267.594 176.496L267.222 176.248L264.243 174.637L264.491 164.845C264.491 164.101 265.112 163.606 265.732 163.606C265.732 163.482 265.856 163.482 265.856 163.482Z" fill="white"/>
<path d="M511.11 265.983C511.11 265.983 519.301 295.482 517.936 298.828C516.571 302.175 509.993 302.794 507.014 303.414C504.035 304.034 477.226 310.975 474.495 311.223C471.765 311.346 472.013 311.718 470.772 311.718C469.531 311.718 454.637 306.761 454.14 305.025C453.644 303.29 453.147 302.051 453.644 299.944C454.14 297.837 460.843 269.577 462.704 268.958C464.566 268.338 511.11 265.983 511.11 265.983Z" fill="url(#paint7_linear)"/>
<path d="M512.475 271.313C512.475 271.313 511.854 266.727 511.11 265.983C510.241 265.363 508.007 262.265 505.773 262.141C503.538 262.017 467.793 266.479 466.428 266.727C465.062 266.975 463.325 267.718 462.704 268.834C462.084 269.949 467.917 271.313 469.034 274.783C470.151 278.254 490.506 285.69 495.595 286.186C500.684 286.806 512.475 271.313 512.475 271.313Z" fill="url(#paint8_linear)"/>
<path d="M500.808 263.38C500.808 263.38 496.96 255.076 495.099 253.589C493.485 252.225 487.652 249.251 484.052 253.713C480.081 258.794 480.453 264.62 480.453 265.363C480.453 266.107 484.425 265.487 484.425 265.487C484.425 265.487 483.183 259.538 484.3 257.431C485.293 255.572 485.914 253.217 489.637 253.465C493.361 253.713 494.726 255.696 495.719 257.679C496.712 259.538 497.457 261.521 498.077 263.628C498.201 263.628 500.808 263.38 500.808 263.38Z" fill="#7A5BF5"/>
<path d="M494.602 263.876C494.602 263.876 490.755 253.713 488.893 251.854C487.279 250.118 481.074 246.772 477.474 252.225C473.502 258.423 474.247 265.239 474.247 266.107C474.247 266.975 478.219 266.231 478.219 266.231C478.219 266.231 476.978 258.918 478.095 256.316C479.088 253.961 479.708 251.234 483.308 251.482C486.907 251.73 488.396 254.208 489.389 256.563C490.382 258.918 491.127 261.273 491.747 263.876C491.996 264.248 494.602 263.876 494.602 263.876Z" fill="#7A5BF5"/>
<path d="M470.648 276.89C470.648 276.89 473.999 305.273 473.627 307.132C473.254 308.992 472.013 311.718 471.268 311.718C470.524 311.718 469.158 311.594 469.655 310.851C471.392 308.372 472.137 305.397 471.641 302.546C471.144 297.961 469.158 274.659 469.158 274.659L470.648 276.89Z" fill="#7A5BF5"/>
<path d="M496.464 288.417C497.629 288.417 498.574 287.474 498.574 286.31C498.574 285.146 497.629 284.203 496.464 284.203C495.299 284.203 494.354 285.146 494.354 286.31C494.354 287.474 495.299 288.417 496.464 288.417Z" fill="white"/>
</g>
<defs>
<linearGradient id="paint0_linear" x1="462.853" y1="177.351" x2="574.847" y2="277.287" gradientUnits="userSpaceOnUse">
<stop stop-color="#58CAEA"/>
<stop offset="1" stop-color="#4C4CBF"/>
</linearGradient>
<linearGradient id="paint1_linear" x1="573.296" y1="126.454" x2="496.152" y2="271.576" gradientUnits="userSpaceOnUse">
<stop stop-color="#58CAEA"/>
<stop offset="1" stop-color="#4C4CBF"/>
</linearGradient>
<linearGradient id="paint2_linear" x1="461.001" y1="209.036" x2="633.965" y2="280.816" gradientUnits="userSpaceOnUse">
<stop stop-color="#58CAEA"/>
<stop offset="1" stop-color="#4C4CBF"/>
</linearGradient>
<linearGradient id="paint3_linear" x1="247.457" y1="285.934" x2="319.131" y2="285.934" gradientUnits="userSpaceOnUse">
<stop stop-color="#4F68CA"/>
<stop offset="1" stop-color="#5ACEED"/>
</linearGradient>
<linearGradient id="paint4_linear" x1="230.84" y1="122.702" x2="328.138" y2="122.702" gradientUnits="userSpaceOnUse">
<stop stop-color="#F87B58"/>
<stop offset="0.41" stop-color="#F89453"/>
<stop offset="0.71" stop-color="#F8C548"/>
<stop offset="1" stop-color="#F89C51"/>
</linearGradient>
<linearGradient id="paint5_linear" x1="226.982" y1="157.385" x2="329.825" y2="157.385" gradientUnits="userSpaceOnUse">
<stop stop-color="#E1A1ED"/>
<stop offset="1" stop-color="#7658F4"/>
</linearGradient>
<linearGradient id="paint6_linear" x1="265.33" y1="59.6354" x2="299.566" y2="59.6354" gradientUnits="userSpaceOnUse">
<stop stop-color="#5ACEED"/>
<stop offset="0.55" stop-color="#4F68CA"/>
<stop offset="1" stop-color="#5282D3"/>
</linearGradient>
<linearGradient id="paint7_linear" x1="529.947" y1="266.354" x2="467.171" y2="295.708" gradientUnits="userSpaceOnUse">
<stop stop-color="#7A5BF5"/>
<stop offset="1" stop-color="#CD94EF"/>
</linearGradient>
<linearGradient id="paint8_linear" x1="520.203" y1="258.697" x2="478.481" y2="278.21" gradientUnits="userSpaceOnUse">
<stop stop-color="#7A5BF5"/>
<stop offset="1" stop-color="#E5A4ED"/>
</linearGradient>
<clipPath id="clip0">
<rect width="702" height="396" fill="white"/>
</clipPath>
</defs>
</svg>
