<svg width="393" height="78" viewBox="0 0 393 78" fill="none" xmlns="http://www.w3.org/2000/svg">
<path d="M104.416 48.304H106.192C106.48 49.104 106.624 49.808 106.624 50.416C106.624 51.024 106.576 51.504 106.48 51.856C105.2 52.08 103.84 52.192 102.4 52.192C99.232 52.192 97.648 50.544 97.648 47.248V17.008L97.984 16.72H99.856C100.848 16.72 101.536 16.976 101.92 17.488C102.336 17.968 102.544 18.768 102.544 19.888V46.144C102.544 47.584 103.168 48.304 104.416 48.304ZM127.081 49.984C125.321 51.744 123.001 52.624 120.121 52.624C118.457 52.624 116.985 52.336 115.705 51.76C114.425 51.152 113.337 50.304 112.441 49.216C111.577 48.096 110.905 46.784 110.425 45.28C109.977 43.744 109.753 42.032 109.753 40.144C109.753 38.288 109.977 36.592 110.425 35.056C110.905 33.52 111.577 32.208 112.441 31.12C113.337 30 114.425 29.152 115.705 28.576C116.985 27.968 118.457 27.664 120.121 27.664C121.785 27.664 123.257 27.968 124.537 28.576C125.817 29.152 126.889 30 127.753 31.12C128.649 32.208 129.321 33.52 129.769 35.056C130.249 36.592 130.489 38.288 130.489 40.144C130.489 44.432 129.353 47.712 127.081 49.984ZM120.121 31.456C116.633 31.456 114.889 34.352 114.889 40.144C114.889 45.936 116.633 48.832 120.121 48.832C123.641 48.832 125.401 45.936 125.401 40.144C125.401 34.352 123.641 31.456 120.121 31.456ZM154.706 49.792C154.322 50.944 153.698 51.792 152.834 52.336C150.946 51.984 149.666 50.992 148.994 49.36C146.722 51.536 144.386 52.624 141.986 52.624C140.77 52.624 139.698 52.432 138.77 52.048C137.874 51.664 137.106 51.152 136.466 50.512C135.858 49.84 135.394 49.088 135.074 48.256C134.786 47.392 134.642 46.496 134.642 45.568C134.642 42.944 135.474 40.96 137.138 39.616C138.834 38.272 141.074 37.6 143.858 37.6C144.658 37.6 145.442 37.632 146.21 37.696C146.978 37.728 147.73 37.808 148.466 37.936V36.064C148.466 33.216 147.154 31.792 144.53 31.792C142.706 31.792 140.194 32.4 136.994 33.616C136.066 32.816 135.586 31.616 135.554 30.016C138.818 28.544 142.13 27.808 145.49 27.808C147.986 27.808 149.922 28.48 151.298 29.824C152.674 31.136 153.362 33.136 153.362 35.824V45.664C153.362 47.648 153.81 49.024 154.706 49.792ZM142.802 48.688C144.85 48.688 146.738 47.728 148.466 45.808V41.248C147.826 41.184 147.154 41.136 146.45 41.104C145.746 41.072 145.01 41.056 144.242 41.056C142.77 41.056 141.618 41.424 140.786 42.16C139.986 42.864 139.586 43.808 139.586 44.992C139.586 46.144 139.874 47.056 140.45 47.728C141.026 48.368 141.81 48.688 142.802 48.688ZM179.562 35.728V46.912C179.562 48.8 179.834 50.256 180.378 51.28C179.546 51.984 178.57 52.336 177.45 52.336C176.362 52.336 175.61 52.08 175.194 51.568C174.81 51.024 174.618 50.224 174.618 49.168V36.976C174.618 35.312 174.394 34.128 173.946 33.424C173.53 32.72 172.794 32.368 171.738 32.368C170.682 32.368 169.594 32.64 168.474 33.184C167.386 33.696 166.426 34.416 165.594 35.344V52C165.05 52.128 164.234 52.192 163.146 52.192C162.634 52.192 162.17 52.176 161.754 52.144C161.338 52.112 160.97 52.064 160.65 52V28.384L160.938 28.096H162.81C164.538 28.096 165.45 29.088 165.546 31.072C167.882 28.928 170.426 27.856 173.178 27.856C175.322 27.856 176.922 28.576 177.978 30.016C179.034 31.424 179.562 33.328 179.562 35.728ZM186.469 47.008C187.269 46.56 188.261 46.336 189.445 46.336C189.989 46.336 190.469 46.384 190.885 46.48C191.301 46.544 191.669 46.656 191.989 46.816C192.309 46.944 192.517 47.232 192.613 47.68C192.741 48.096 192.805 48.656 192.805 49.36C192.805 50.032 192.757 50.592 192.661 51.04C192.597 51.456 192.421 51.744 192.133 51.904C191.845 52.064 191.493 52.176 191.077 52.24C190.661 52.336 190.133 52.384 189.493 52.384C188.885 52.384 188.357 52.336 187.909 52.24C187.493 52.176 187.125 52.08 186.805 51.952C186.485 51.824 186.277 51.536 186.181 51.088C186.085 50.64 186.037 50.064 186.037 49.36C186.037 48.336 186.181 47.552 186.469 47.008ZM209.831 52.432C208.039 52.432 206.215 51.904 204.359 50.848V59.152C204.359 60.272 204.151 61.072 203.735 61.552C203.351 62.064 202.663 62.32 201.671 62.32H199.751L199.463 62.032V28.384L199.751 28.096H201.287C202.887 28.096 203.863 28.912 204.215 30.544C206.071 28.624 208.295 27.664 210.887 27.664C212.167 27.664 213.319 27.952 214.343 28.528C215.367 29.104 216.215 29.936 216.887 31.024C217.591 32.112 218.119 33.424 218.471 34.96C218.855 36.464 219.047 38.176 219.047 40.096C219.047 42.016 218.807 43.744 218.327 45.28C217.847 46.816 217.175 48.112 216.311 49.168C215.479 50.224 214.503 51.04 213.383 51.616C212.263 52.16 211.079 52.432 209.831 52.432ZM209.639 31.84C207.559 31.84 205.799 32.88 204.359 34.96V46.72C205.191 47.264 205.991 47.696 206.759 48.016C207.559 48.304 208.311 48.448 209.015 48.448C210.519 48.448 211.719 47.712 212.615 46.24C213.543 44.768 214.007 42.672 214.007 39.952C214.007 37.168 213.591 35.12 212.759 33.808C211.927 32.496 210.887 31.84 209.639 31.84ZM223.572 30.592C223.892 29.408 224.5 28.528 225.396 27.952C227.604 28.432 229.06 29.856 229.764 32.224C231.044 29.376 233.14 27.952 236.052 27.952C236.82 27.952 237.668 28.048 238.596 28.24C238.596 30.096 238.196 31.664 237.396 32.944C237.108 32.848 236.452 32.768 235.428 32.704C233.252 32.704 231.54 33.92 230.292 36.352V52C229.684 52.128 228.852 52.192 227.796 52.192C226.772 52.192 225.956 52.128 225.348 52V35.536C225.348 33.36 224.756 31.712 223.572 30.592ZM257.393 49.984C255.633 51.744 253.313 52.624 250.433 52.624C248.769 52.624 247.297 52.336 246.017 51.76C244.737 51.152 243.649 50.304 242.753 49.216C241.889 48.096 241.217 46.784 240.737 45.28C240.289 43.744 240.065 42.032 240.065 40.144C240.065 38.288 240.289 36.592 240.737 35.056C241.217 33.52 241.889 32.208 242.753 31.12C243.649 30 244.737 29.152 246.017 28.576C247.297 27.968 248.769 27.664 250.433 27.664C252.097 27.664 253.569 27.968 254.849 28.576C256.129 29.152 257.201 30 258.065 31.12C258.961 32.208 259.633 33.52 260.081 35.056C260.561 36.592 260.801 38.288 260.801 40.144C260.801 44.432 259.665 47.712 257.393 49.984ZM250.433 31.456C246.945 31.456 245.201 34.352 245.201 40.144C245.201 45.936 246.945 48.832 250.433 48.832C253.953 48.832 255.713 45.936 255.713 40.144C255.713 34.352 253.953 31.456 250.433 31.456ZM277.877 28.24C278.037 28.784 278.117 29.408 278.117 30.112C278.117 30.816 278.037 31.424 277.877 31.936L271.973 31.84V46.192C271.973 47.6 272.629 48.304 273.941 48.304H277.253C277.509 49.008 277.637 49.728 277.637 50.464C277.637 51.168 277.605 51.632 277.541 51.856C275.685 52.08 273.893 52.192 272.165 52.192C268.805 52.192 267.125 50.544 267.125 47.248V31.888L263.573 31.936C263.445 31.392 263.381 30.8 263.381 30.16C263.381 29.488 263.445 28.848 263.573 28.24L267.125 28.336V24.112C267.125 22.96 267.317 22.144 267.701 21.664C268.085 21.184 268.773 20.944 269.765 20.944H271.637L271.973 21.28V28.384L277.877 28.24ZM298.268 49.984C296.508 51.744 294.188 52.624 291.308 52.624C289.644 52.624 288.172 52.336 286.892 51.76C285.612 51.152 284.524 50.304 283.628 49.216C282.764 48.096 282.092 46.784 281.612 45.28C281.164 43.744 280.94 42.032 280.94 40.144C280.94 38.288 281.164 36.592 281.612 35.056C282.092 33.52 282.764 32.208 283.628 31.12C284.524 30 285.612 29.152 286.892 28.576C288.172 27.968 289.644 27.664 291.308 27.664C292.972 27.664 294.444 27.968 295.724 28.576C297.004 29.152 298.076 30 298.94 31.12C299.836 32.208 300.508 33.52 300.956 35.056C301.436 36.592 301.676 38.288 301.676 40.144C301.676 44.432 300.54 47.712 298.268 49.984ZM291.308 31.456C287.82 31.456 286.076 34.352 286.076 40.144C286.076 45.936 287.82 48.832 291.308 48.832C294.828 48.832 296.588 45.936 296.588 40.144C296.588 34.352 294.828 31.456 291.308 31.456ZM318.752 28.24C318.912 28.784 318.992 29.408 318.992 30.112C318.992 30.816 318.912 31.424 318.752 31.936L312.848 31.84V46.192C312.848 47.6 313.504 48.304 314.816 48.304H318.128C318.384 49.008 318.512 49.728 318.512 50.464C318.512 51.168 318.48 51.632 318.416 51.856C316.56 52.08 314.768 52.192 313.04 52.192C309.68 52.192 308 50.544 308 47.248V31.888L304.448 31.936C304.32 31.392 304.256 30.8 304.256 30.16C304.256 29.488 304.32 28.848 304.448 28.24L308 28.336V24.112C308 22.96 308.192 22.144 308.576 21.664C308.96 21.184 309.648 20.944 310.64 20.944H312.512L312.848 21.28V28.384L318.752 28.24ZM342.201 28.72L335.865 51.232C335.289 53.248 334.681 54.96 334.041 56.368C333.433 57.808 332.713 58.976 331.881 59.872C331.081 60.768 330.121 61.424 329.001 61.84C327.913 62.256 326.633 62.464 325.161 62.464C324.905 62.464 324.521 62.448 324.009 62.416C323.497 62.384 322.985 62.32 322.473 62.224C321.961 62.16 321.513 62.064 321.129 61.936C320.745 61.84 320.553 61.696 320.553 61.504C320.553 60.96 320.649 60.352 320.841 59.68C321.033 59.008 321.305 58.496 321.657 58.144C322.713 58.56 323.961 58.768 325.401 58.768C326.777 58.768 327.897 58.272 328.761 57.28C329.625 56.32 330.361 54.832 330.969 52.816L331.113 52.24C330.089 52.208 329.289 52.016 328.713 51.664C328.137 51.28 327.705 50.608 327.417 49.648L321.081 28.672C322.233 28.192 323.241 27.952 324.105 27.952C325.353 27.952 326.185 28.688 326.601 30.16L329.865 41.2C330.025 41.712 330.249 42.56 330.537 43.744C330.825 44.896 331.193 46.4 331.641 48.256C331.673 48.48 331.817 48.592 332.073 48.592L337.353 28.288C337.609 28.224 337.897 28.176 338.217 28.144C338.569 28.112 338.953 28.096 339.369 28.096C339.817 28.096 340.265 28.128 340.713 28.192C341.193 28.224 341.641 28.304 342.057 28.432L342.201 28.72ZM356.878 52.432C355.086 52.432 353.262 51.904 351.406 50.848V59.152C351.406 60.272 351.198 61.072 350.782 61.552C350.398 62.064 349.71 62.32 348.718 62.32H346.798L346.51 62.032V28.384L346.798 28.096H348.334C349.934 28.096 350.91 28.912 351.262 30.544C353.118 28.624 355.342 27.664 357.934 27.664C359.214 27.664 360.366 27.952 361.39 28.528C362.414 29.104 363.262 29.936 363.934 31.024C364.638 32.112 365.166 33.424 365.518 34.96C365.902 36.464 366.094 38.176 366.094 40.096C366.094 42.016 365.854 43.744 365.374 45.28C364.894 46.816 364.222 48.112 363.358 49.168C362.526 50.224 361.55 51.04 360.43 51.616C359.31 52.16 358.126 52.432 356.878 52.432ZM356.686 31.84C354.606 31.84 352.846 32.88 351.406 34.96V46.72C352.238 47.264 353.038 47.696 353.806 48.016C354.606 48.304 355.358 48.448 356.062 48.448C357.566 48.448 358.766 47.712 359.662 46.24C360.59 44.768 361.054 42.672 361.054 39.952C361.054 37.168 360.638 35.12 359.806 33.808C358.974 32.496 357.934 31.84 356.686 31.84ZM389.531 41.728H375.419C375.515 43.936 375.979 45.632 376.811 46.816C377.675 48 379.115 48.592 381.131 48.592C382.091 48.592 383.115 48.448 384.203 48.16C385.323 47.872 386.475 47.408 387.659 46.768C388.459 47.504 388.987 48.56 389.243 49.936C386.683 51.728 383.675 52.624 380.219 52.624C378.395 52.624 376.859 52.304 375.611 51.664C374.363 51.024 373.339 50.144 372.539 49.024C371.771 47.904 371.211 46.576 370.859 45.04C370.507 43.472 370.331 41.792 370.331 40C370.331 38.24 370.555 36.608 371.003 35.104C371.451 33.568 372.091 32.256 372.923 31.168C373.755 30.08 374.779 29.232 375.995 28.624C377.243 27.984 378.635 27.664 380.171 27.664C381.707 27.664 383.067 27.92 384.251 28.432C385.467 28.944 386.491 29.664 387.323 30.592C388.155 31.488 388.779 32.576 389.195 33.856C389.643 35.104 389.867 36.464 389.867 37.936C389.867 38.576 389.835 39.216 389.771 39.856C389.739 40.464 389.659 41.088 389.531 41.728ZM380.315 31.36C377.275 31.36 375.643 33.616 375.419 38.128H385.115V37.504C385.115 35.68 384.715 34.208 383.915 33.088C383.147 31.936 381.947 31.36 380.315 31.36Z" fill="#EFEFEF"/>
<path d="M63.7104 21.9905C65.0511 21.6313 66.2366 20.841 67.0842 19.7415C67.9314 18.642 68.3936 17.2944 68.3996 15.9063V15.8898C68.3996 14.2216 67.737 12.6216 66.557 11.442C65.3775 10.2624 63.7775 9.59964 62.1094 9.59964H62.0932C60.7052 9.60571 59.3579 10.0681 58.2587 10.9154C57.1595 11.7628 56.3691 12.9481 56.0101 14.2888C54.9825 18.0111 52.762 21.2936 49.6897 23.6328C46.6171 25.972 42.8622 27.2387 39.0006 27.2387C35.139 27.2387 31.384 25.972 28.3115 23.6328C25.2391 21.2936 23.0188 18.0111 21.9911 14.2888C21.6317 12.9482 20.8414 11.763 19.742 10.9159C18.6426 10.0687 17.2952 9.60659 15.9073 9.60069H15.8908C14.2225 9.60069 12.6226 10.2634 11.4429 11.443C10.2633 12.6227 9.60059 14.2226 9.60059 15.8909V15.9074C9.60673 17.2953 10.0691 18.6427 10.9164 19.7419C11.7638 20.8412 12.9491 21.6313 14.2897 21.9905C18.0121 23.0181 21.2946 25.2385 23.6337 28.3109C25.9729 31.3834 27.2397 35.1384 27.2397 39C27.2397 42.8616 25.9729 46.6164 23.6337 49.6891C21.2946 52.7617 18.0121 54.9819 14.2897 56.0095C12.9492 56.3688 11.764 57.1588 10.9167 58.258C10.0694 59.3572 9.60708 60.7046 9.60094 62.0922V62.1087C9.60094 63.7772 10.2636 65.3769 11.4433 66.5568C12.623 67.7363 14.2229 68.3989 15.8911 68.3989H15.9076C17.2956 68.393 18.6429 67.9304 19.7422 67.0832C20.8414 66.2356 21.6315 65.0505 21.9908 63.7098C23.0184 59.9876 25.2387 56.7051 28.3112 54.3659C31.3837 52.0264 35.1387 50.7598 39.0003 50.7598C42.8618 50.7598 46.6167 52.0264 49.6894 54.3659C52.7616 56.7051 54.9821 59.9876 56.0097 63.7098C56.3688 65.0505 57.1591 66.236 58.2583 67.0836C59.3575 67.9308 60.7052 68.3933 62.0932 68.3993H62.1097C63.7778 68.3993 65.3778 67.7363 66.5574 66.5568C67.737 65.3772 68.3999 63.7772 68.3999 62.1091V62.0922C68.394 60.7042 67.9314 59.3569 67.0842 58.2577C66.2366 57.1585 65.0514 56.3685 63.7108 56.0091C59.9885 54.9815 56.706 52.7614 54.3669 49.6887C52.0274 46.6161 50.7608 42.8612 50.7608 38.9996C50.7608 35.138 52.0274 31.3831 54.3669 28.3106C56.706 25.2381 59.9885 23.0178 63.7108 21.9902L63.7104 21.9905Z" fill="#1CE8A5"/>
<path d="M8.23104 3.7256C8.43337 3.92684 8.6934 4.06002 8.97493 4.10663C9.25647 4.15324 9.54552 4.11095 9.80193 3.98566C12.1413 2.85589 14.7735 2.47961 17.3357 2.90868C19.8979 3.33774 22.264 4.55105 24.1076 6.38129C24.3618 6.63738 24.7052 6.78506 25.066 6.79331C25.4267 6.80156 25.7765 6.66974 26.0421 6.42551C26.1741 6.29955 26.2795 6.1485 26.3523 5.9812C26.425 5.8139 26.4636 5.63375 26.4658 5.45132C26.4679 5.2689 26.4335 5.08791 26.3647 4.91896C26.2958 4.75001 26.1939 4.59653 26.0649 4.46752C23.8167 2.22477 20.9261 0.737324 17.7943 0.211521C14.6625 -0.314282 11.4447 0.147632 8.58727 1.53318C8.39273 1.62965 8.22395 1.77111 8.09501 1.94584C7.96607 2.12057 7.88065 2.32352 7.8458 2.53786C7.81098 2.75221 7.82776 2.97177 7.89476 3.17833C7.96175 3.38489 8.07704 3.57251 8.23104 3.7256Z" fill="#1CE8A5"/>
<path d="M1.53811 8.57623C0.154254 11.4245 -0.311607 14.6319 0.204801 17.7561C0.721209 20.8804 2.19444 23.7674 4.42123 26.0188C4.65539 26.2648 4.97072 26.4178 5.30894 26.4493C5.64712 26.4809 5.9853 26.3889 6.26094 26.1904C6.41708 26.0724 6.54613 25.9223 6.63934 25.7502C6.73256 25.5781 6.7878 25.388 6.80128 25.1928C6.81479 24.9975 6.78626 24.8017 6.71764 24.6184C6.649 24.4351 6.54185 24.2686 6.40343 24.1303C4.56382 22.2862 3.34323 19.9156 2.9108 17.347C2.47836 14.7783 2.85548 12.1388 3.9899 9.79405C4.11614 9.53736 4.15913 9.24768 4.11288 8.96541C4.06665 8.6831 3.93347 8.4223 3.73195 8.21931C3.57872 8.06517 3.39098 7.94981 3.18425 7.88277C2.97753 7.81578 2.7578 7.799 2.5433 7.83389C2.3288 7.86881 2.12572 7.95433 1.9509 8.08345C1.77608 8.21253 1.63457 8.38148 1.53811 8.57623Z" fill="#1CE8A5"/>
<path d="M68.1998 74.0142C65.8596 75.1443 63.2267 75.5205 60.6637 75.0906C58.101 74.661 55.7345 73.4467 53.8909 71.6154C53.6372 71.3606 53.295 71.2136 52.9356 71.2055C52.5759 71.1971 52.2274 71.3284 51.9624 71.5716C51.8298 71.6972 51.7238 71.8485 51.6504 72.0159C51.5774 72.1833 51.5385 72.3637 51.536 72.5465C51.5336 72.7294 51.5679 72.9108 51.6367 73.08C51.7055 73.2495 51.8077 73.4032 51.9368 73.5324C54.185 75.775 57.0755 77.2623 60.2075 77.7884C63.339 78.3142 66.557 77.8523 69.4145 76.4667C69.6089 76.3702 69.7777 76.2288 69.9069 76.054C70.0357 75.8792 70.1209 75.6764 70.1557 75.4619C70.1904 75.2475 70.1736 75.0278 70.1066 74.8214C70.0395 74.6147 69.9241 74.4273 69.77 74.2743C69.5678 74.0732 69.3078 73.9402 69.0263 73.8935C68.7452 73.8468 68.456 73.8889 68.1998 74.0142Z" fill="#1CE8A5"/>
<path d="M71.5719 51.9611C71.3287 52.2261 71.1974 52.5746 71.2058 52.9343C71.2139 53.2937 71.3609 53.6362 71.6157 53.8896C73.4484 55.7346 74.6631 58.1032 75.0916 60.668C75.5205 63.2332 75.1422 65.8678 74.0093 68.2087C73.8836 68.4652 73.8412 68.7544 73.8875 69.0362C73.9342 69.3181 74.0672 69.5785 74.2686 69.781C74.4216 69.935 74.6091 70.0502 74.8154 70.1175C75.0218 70.1846 75.2411 70.2014 75.4556 70.1667C75.6697 70.1319 75.8729 70.047 76.0473 69.9182C76.2221 69.7894 76.3638 69.6209 76.4604 69.4265C77.8501 66.5683 78.3152 63.3483 77.7908 60.2139C77.2665 57.0791 75.7788 54.1858 73.5344 51.9355C73.4053 51.806 73.2512 51.7039 73.0817 51.6347C72.9122 51.5656 72.7307 51.5312 72.5479 51.5337C72.3647 51.5361 72.1843 51.5751 72.0165 51.6488C71.8488 51.7221 71.6979 51.8281 71.5719 51.9611Z" fill="#1CE8A5"/>
<path d="M74.0117 9.7958C75.1436 12.1362 75.5208 14.7703 75.0916 17.3343C74.6624 19.8983 73.4477 22.2659 71.6157 24.1103C71.3609 24.3638 71.2139 24.7061 71.2058 25.0655C71.1974 25.4249 71.3287 25.7736 71.5719 26.0384C71.6975 26.171 71.8488 26.2771 72.0162 26.3504C72.1836 26.4237 72.364 26.4627 72.5468 26.4651C72.7297 26.4675 72.9108 26.4333 73.0803 26.3645C73.2494 26.2957 73.4035 26.1936 73.5327 26.0644C75.7763 23.8151 77.2644 20.923 77.7894 17.7896C78.3148 14.6563 77.8516 11.4371 76.4639 8.57903C76.3674 8.38457 76.2256 8.21597 76.0508 8.08717C75.876 7.95833 75.6732 7.87305 75.4587 7.83837C75.2446 7.8037 75.0249 7.82058 74.8186 7.88768C74.6119 7.95479 74.4245 8.07014 74.2714 8.22421C74.0703 8.42668 73.937 8.68685 73.8903 8.96849C73.844 9.25017 73.8864 9.53932 74.0117 9.7958Z" fill="#1CE8A5"/>
<path d="M53.8902 6.38447C55.7345 4.55222 58.102 3.33766 60.6661 2.90843C63.2302 2.47919 65.8642 2.85646 68.2047 3.98813C68.4612 4.11374 68.7504 4.15624 69.0319 4.10974C69.3137 4.06327 69.5738 3.93008 69.7763 3.72877C69.9303 3.57579 70.0458 3.38826 70.1128 3.18177C70.1799 2.97527 70.1967 2.75576 70.162 2.54142C70.1276 2.32709 70.0423 2.12411 69.9135 1.94932C69.7847 1.77453 69.6159 1.63297 69.4215 1.53636C66.5633 0.148647 63.3443 -0.314745 60.2109 0.210528C57.0776 0.735803 54.1854 2.22367 51.9361 4.46754C51.8069 4.5968 51.7048 4.75059 51.636 4.91989C51.5672 5.08922 51.5328 5.2706 51.5353 5.45334C51.5377 5.63612 51.5767 5.81655 51.6497 5.98399C51.723 6.15147 51.829 6.30255 51.9617 6.42834C52.2267 6.67141 52.5752 6.80256 52.9349 6.79438C53.2943 6.78621 53.6365 6.63933 53.8902 6.38447Z" fill="#1CE8A5"/>
<path d="M24.1105 71.6154C22.2661 73.4474 19.8985 74.6621 17.3345 75.0913C14.7705 75.5205 12.1365 75.1432 9.79601 74.0114C9.53956 73.8861 9.25037 73.8436 8.96873 73.89C8.68705 73.9367 8.42689 74.07 8.22442 74.2711C8.07038 74.4241 7.95502 74.6115 7.88792 74.8183C7.82082 75.0246 7.8039 75.2443 7.83858 75.4584C7.87329 75.6728 7.95857 75.8757 8.08737 76.0505C8.21617 76.2252 8.38481 76.367 8.57924 76.4635C11.4373 77.8512 14.6565 78.3145 17.7899 77.7891C20.9232 77.2641 23.8153 75.776 26.0646 73.5323C26.1938 73.4032 26.2959 73.2491 26.3647 73.08C26.4335 72.9108 26.4677 72.7294 26.4653 72.5465C26.4629 72.3637 26.4239 72.1833 26.3506 72.0159C26.2773 71.8485 26.1712 71.6972 26.0386 71.5716C25.7738 71.3283 25.4252 71.1971 25.0657 71.2052C24.7063 71.2136 24.364 71.3603 24.1105 71.6154Z" fill="#1CE8A5"/>
<path d="M3.98875 68.2041C2.85691 65.8636 2.47954 63.2297 2.90871 60.6656C3.33789 58.1015 4.55246 55.7339 6.38473 53.8897C6.63956 53.6359 6.78647 53.2937 6.79465 52.9343C6.80283 52.5746 6.67164 52.2261 6.4286 51.9611C6.30278 51.8285 6.1517 51.7225 5.98426 51.6491C5.81678 51.5761 5.63635 51.5372 5.45361 51.5347C5.27087 51.5323 5.08946 51.5667 4.92015 51.6355C4.75085 51.7042 4.59703 51.8064 4.46781 51.9355C2.22392 54.1848 0.736044 57.077 0.210773 60.2104C-0.314501 63.3437 0.148891 66.5627 1.53661 69.4209C1.63321 69.6153 1.77478 69.7841 1.94957 69.9129C2.12436 70.0417 2.32733 70.127 2.54167 70.1614C2.756 70.1962 2.97553 70.1793 3.18202 70.1123C3.38851 70.0453 3.57602 69.9298 3.72904 69.7757C3.93031 69.5732 4.06347 69.3132 4.11004 69.0313C4.15658 68.7499 4.11418 68.4607 3.98875 68.2041Z" fill="#1CE8A5"/>
</svg>
